<svg xmlns="http://www.w3.org/2000/svg" viewBox="0 0 200 200" width="200" height="200">
  <defs>
    <linearGradient id="gradient" x1="0%" y1="0%" x2="100%" y2="100%">
      <stop offset="0%" style="stop-color:#4F46E5;stop-opacity:1" />
      <stop offset="100%" style="stop-color:#7C3AED;stop-opacity:1" />
    </linearGradient>
  </defs>
  
  <!-- Background circle -->
  <circle cx="100" cy="100" r="90" fill="url(#gradient)" />
  
  <!-- JHS Text -->
  <text x="100" y="85" font-family="Arial, sans-serif" font-size="48" font-weight="bold" 
        text-anchor="middle" fill="white">JHS</text>
  
  <!-- Store text -->
  <text x="100" y="125" font-family="Arial, sans-serif" font-size="18" font-weight="normal" 
        text-anchor="middle" fill="white" opacity="0.9">STORE</text>
  
  <!-- Android robot icon -->
  <g transform="translate(140, 40) scale(0.8)">
    <path d="M12 2C13.1 2 14 2.9 14 4C14 5.1 13.1 6 12 6C10.9 6 10 5.1 10 4C10 2.9 10.9 2 12 2ZM21 9V7L15 1L9 7V9C9 11.2 10.8 13 13 13H11C9.8 13 9 13.8 9 15V19H15V15C15 13.8 14.2 13 13 13H11C13.2 13 15 11.2 15 9Z" 
          fill="white" opacity="0.7"/>
  </g>
</svg>
